
<!-- Generator: Adobe Illustrator 22.0.1, SVG Export Plug-In . SVG Version: 6.00 Build 0)  -->
<svg version="1.1" id="Слой_1" xmlns="http://www.w3.org/2000/svg" xmlns:xlink="http://www.w3.org/1999/xlink" x="0px" y="0px"
	 viewBox="0 0 288 144" style="enable-background:new 0 0 288 144;" xml:space="preserve">
<style type="text/css">
	.st0{fill:#FFFFFF;}
</style>
<g>
	<path class="st0" d="M143.8,52.8c0.1-0.4,0.2-0.8,0.2-1.2c1-10.4,1.9-20.8,2.9-31.3c0.3-3.2,0.6-6.4,0.9-9.6c0.1-1-0.2-1.7-1.2-2.1
		c-1.8-0.9-2.8-2.8-2.5-4.7c0.3-1.8,1.8-3.5,3.6-3.8c2.1-0.4,3.9,0.4,5,2.2c1.1,2,0.4,4.5-1.6,6.3c-0.5,0.4-0.9,1.3-0.8,1.9
		c0.9,8.4,1.8,16.8,2.8,25.1c0.6,5.6,1.2,11.1,1.8,16.7c0,0.4,0.1,0.7,0.2,1.1c0.1,0,0.3,0.1,0.4,0.1c0.3-0.7,0.7-1.3,0.9-2
		c2.3-9.1,4.5-18.2,6.7-27.3c0.8-3.1,1.5-6.2,2.2-9.2c0.2-1,0.1-1.6-0.7-2.2c-1.7-1.3-2.3-3.5-1.5-5.4c0.8-1.8,2.8-3,4.7-2.8
		c2,0.2,3.8,1.9,4.1,4c0.3,1.9-0.9,4.1-2.8,4.8c-1.5,0.6-1.5,1.8-1.6,3c-0.3,3.4-0.4,6.8-0.7,10.2c-0.5,7.8-1.1,15.6-1.7,23.4
		c-0.1,1.3-0.3,2.5-0.3,3.8c0,0.5,0.1,1,0.1,1.5c0.1,0,0.3,0.1,0.4,0.1c0.6-1.2,1.2-2.4,1.8-3.6c3.6-7.7,7.2-15.5,10.8-23.3
		c0.1-0.3,0.2-0.5,0.4-0.8c0.9-1.7,1.4-3.2,0-5c-1.4-1.8-0.2-4.8,1.9-5.9c2.3-1.2,5-0.4,6.1,1.8c1.2,2.3,0.7,5.5-1.6,6.1
		c-3.2,0.8-3.5,3.1-4.2,5.5c-2.7,9.3-5.4,18.5-8.1,27.8c-1.1,3.9-2.4,7.9-3.4,11.8c-0.8,3.2-2.9,5.2-5.7,6.5c-5,2.4-10.5,3.3-16,2.8
		c-3.2-0.2-6.5-0.8-9.6-1.7c-4.6-1.3-7.2-4.6-8.5-9.2c-1.6-5.5-3.6-10.9-5.4-16.3c-2.5-7.6-5-15.3-7.5-22.9
		c-0.4-1.3-0.9-2.1-2.5-2.2c-2.5-0.2-4.3-3-3.6-5.4c0.7-2.6,3.4-4.2,5.8-3.4c2.6,0.9,3.9,3.6,2.9,6c-0.2,0.4-0.5,0.8-0.6,1.3
		c-0.1,0.7-0.2,1.5,0.1,2.1c3.9,7.1,7.9,14.1,11.8,21.2c1,1.9,2.1,3.7,3.1,5.6c0.3,0.6,0.8,1,1.5,1.8c-0.2-2.5-0.4-4.6-0.7-6.7
		c-0.8-6.8-1.7-13.5-2.5-20.3c-0.5-4.3-1-8.6-1.5-12.8c-0.1-1.2-0.7-1.8-1.8-2.2c-2-0.7-3.1-2.2-3.2-4.3c0-1.7,1.1-3.5,2.7-4.2
		c1.9-0.8,3.7-0.5,5.2,1c1.5,1.5,1.8,4.5,0.3,6c-1.3,1.3-1.1,2.4-0.6,3.8c2.3,7.7,4.6,15.5,6.8,23.3c1.2,4.2,2.5,8.3,3.7,12.5
		c0.1,0.3,0.2,0.6,0.4,0.9C143.6,52.7,143.7,52.7,143.8,52.8z M148.1,66.2c0,0.1,0,0.3-0.1,0.4c-1.1,0.1-2.3,0-3.4,0.2
		c-2.5,0.5-5.1,1-7.5,1.7c-0.8,0.3-1.8,1.4-1.8,2.2c0,0.8,1,1.7,1.7,2.4c0.4,0.4,1,0.6,1.6,0.9c3.6,1.6,7.5,2,11.4,1.8
		c3.4-0.1,6.8-0.5,9.8-2.3c1.2-0.7,2.2-1.6,2.1-3c-0.2-1.3-1.4-2.1-2.6-2.5c-0.1,0-0.2-0.1-0.3-0.1
		C155.4,67.3,151.8,66.7,148.1,66.2z"/>
	<path class="st0" d="M43.5,119.8c0.4,0.3,0.7,0.7,1.1,1c2.6,2.1,3.9,4.8,3.9,8.3c0,1.8,0.3,3.7,0.7,5.4c0.1,0.6,1.1,1.5,1.6,1.4
		c0.8-0.1,1.8-0.7,2.2-1.4c0.5-1,0.6-2.3,0.7-3.5c0.1-1,0.7-1.3,1.5-1.3c0.9,0,2.4-0.4,2.4,1c0.1,2.8,0,5.6-0.5,8.3
		c-0.6,3.2-2.9,4.7-6.1,4.9c-3.9,0.3-7.7,0.1-10.4-3.1c-1-1.2-1.6-3-1.9-4.6c-0.5-2.8-0.3-5.7-0.9-8.4c-0.8-3.8-3.4-5.8-7.2-6
		c-1.3-0.1-2.7,0-4-0.1c-0.8,0-1.3,0.3-1.3,1.2c0,4.1-0.1,8.2-0.1,12.2c0,1.4,1.2,2.3,2.9,2.4c0.9,0,1.8,0,2.7,0
		c1,0,1.6,0.4,1.5,1.6c-0.1,0.7-0.1,1.3,0,2c0.1,1.5-0.6,1.8-1.9,1.8c-7.4-0.1-14.9-0.1-22.3-0.2c-1.7,0-2-0.3-1.9-2
		c0.1-3.3,0.1-3.3,3.4-3.3c4.5,0,5-0.5,5-5c0.1-8.9,0.2-17.8,0.3-26.7c0-2.1-0.9-3.1-3.1-3.2c-1.3,0-2.7,0-4-0.1c-0.4,0-1-0.3-1-0.5
		c-0.1-1.5,0-3,0.1-4.4C7,97.2,7.8,97,8.2,97c11.2,0.1,22.4,0.2,33.6,0.3c3.2,0,6.1,0.9,8.5,3.1c3.4,3,4.1,9.1,2.1,12.7
		c-1.7,3.1-4.4,4.7-7.5,5.9c-0.3,0.1-0.6,0.2-0.9,0.4C43.7,119.4,43.7,119.5,43.5,119.8z M25.4,109C25.4,109,25.4,109,25.4,109
		c0,1.7,0.1,3.3,0,5c-0.1,1.3,0.5,1.6,1.6,1.6c2.4,0,4.9,0.2,7.2-0.1c1.8-0.2,3.8-0.7,5.2-1.8c2.9-2.1,2.6-7.7-0.3-9.5
		c-1.1-0.7-2.4-1.3-3.6-1.4c-2.9-0.3-5.9-0.2-8.8-0.3c-1,0-1.3,0.5-1.3,1.4C25.4,105.6,25.4,107.3,25.4,109z"/>
	<path class="st0" d="M241.2,97.2c3.8,0,7.7,0,11.5,0c1.1,0,1.7,0.4,1.6,1.6c0,0.2-0.1,0.4-0.1,0.6c-0.1,0.9,0.2,2.1-0.3,2.7
		c-0.4,0.5-1.6,0.4-2.5,0.6c-1.1,0.3-1.6,1.8-0.8,2.9c1.4,1.8,2.8,3.5,4.3,5.3c0.6,0.7,1.2,0.5,1.8-0.1c1.7-1.9,3.3-3.9,4.9-5.8
		c0.3-0.4,0.7-1.2,0.5-1.6c-0.2-0.4-0.9-0.7-1.5-0.9c-0.7-0.2-2-0.2-2.1-0.6c-0.3-1.3-0.3-2.7-0.2-4.1c0-0.3,0.8-0.7,1.2-0.7
		c6.9,0,13.7,0,20.6,0c0.2,0,0.4,0,0.6,0.1c1.7,0.9,0.7,2.5,0.9,3.8c0.1,0.9-0.5,1.3-1.4,1.4c-1.7,0.1-3.4,0-5.1,0.3
		c-1.1,0.2-2.2,0.7-3,1.5c-3.9,4-7.8,8-11.6,12.1c-0.3,0.3-0.2,1.2,0.1,1.6c4.5,5.3,9,10.6,13.5,15.9c0.8,0.9,1.6,2,2.6,2.6
		c1,0.6,2.2,0.9,3.4,1.1c1,0.2,1.5,0.6,1.5,1.6c0.2,3.7,0.2,3.7-3.6,3.7c-7.1,0-14.2,0-21.3,0c-1.3,0-1.7-0.4-1.6-1.6
		c0.1-0.6,0-1.1,0-1.7c0-2,0.1-2,2.1-2c0.7,0,1.5,0.2,2.1,0c0.8-0.2,1.8-0.6,2.2-1.2c0.3-0.5,0-1.6-0.4-2.1
		c-2.3-2.9-4.8-5.8-7.1-8.7c-0.8-1-1.4-0.9-2.1,0c-2.6,2.9-5.2,5.8-7.7,8.7c-0.4,0.5-0.6,1.5-0.5,2.2c0.1,1,1,1.1,1.9,1.1
		c1.2,0,2.5,0,3.7,0c1,0,1.6,0.4,1.6,1.6c0,4.1,0.2,3.7-3.6,3.7c-5.9,0-11.8,0-17.6,0c-1.7,0-2-0.3-1.9-2c0-0.4-0.1-0.8-0.1-1.3
		c0-1.5,0.4-1.7,1.8-2c1.2-0.2,2.6-0.8,3.5-1.7c5-5.1,9.8-10.3,14.7-15.4c0.8-0.9,0.9-1.6,0.1-2.5c-3.3-4-6.7-7.9-9.8-11.9
		c-2.2-2.8-5.1-3.4-8.3-3.6c-1.7-0.1-2-0.4-1.9-2c0-3.2,0-3.2,3.2-3.2C234.4,97.3,237.8,97.3,241.2,97.2
		C241.2,97.2,241.2,97.2,241.2,97.2z"/>
	<path class="st0" d="M193.8,142.7c-7.1,0-14.2,0-21.3,0c-1.8,0-2-0.2-1.9-1.9c0-3,0-3,3-3c4.8,0,5.2-0.4,5.2-5.2
		c0-8.7,0-17.4,0-26.2c0-0.6-0.1-1.2-0.1-1.8c-0.1-1.1-0.7-1.8-1.8-1.9c-1.5-0.2-3.1-0.3-4.7-0.3c-1.2,0-2-0.3-1.8-1.8
		c0.1-0.5,0.1-1,0-1.6c-0.2-1.3,0.5-1.8,1.7-1.8c13.6,0,27.1,0,40.7,0c4.1,0,3.6-0.4,3.6,3.7c0,4,0,8.1,0,12.1c0,1,0,2.1-1.4,2
		c-2.7-0.1-2.9,0.2-3.2-1.7c-0.2-1.6-0.5-3.2-1-4.7c-1.1-3.6-3.6-5.7-7.3-6c-4.4-0.3-8.8-0.3-13.2-0.4c-0.9,0-1.2,0.5-1.2,1.3
		c0,3.7,0,7.4,0,11.1c0,1,0.4,1.6,1.5,1.4c1.4-0.2,2.7-0.3,4-0.7c2.2-0.7,3.2-2.4,3.2-5.1c0-2,0.3-2.2,2.2-2.1c0.1,0,0.2,0,0.3,0
		c2.8,0.1,2.8,0.1,2.8,2.9c0,5.7,0,11.4,0,17.1c0,1.8-0.1,1.8-1.8,1.9c-3.5,0.2-3.5,0-3.5-3.3c0.1-2.8-2.6-4.3-5-4.5
		c-0.6-0.1-1.1,0-1.7,0c-1.9,0-2,0.1-2,2c0,3.7,0,7.4,0,11.1c0,0.3,0,0.7,0,1c0,0.9,0.4,1.4,1.4,1.3c3.6,0,7.1,0,10.7,0
		c6.2,0,8.7-3.5,10.1-8.8c0.4-1.4,0.4-2.9,0.5-4.4c0-1.1,0.5-1.5,1.6-1.5c0.4,0,0.9,0,1.3,0c1.2-0.1,1.7,0.4,1.7,1.6
		c0,5.6,0,11.2,0,16.8c0,1-0.3,1.4-1.4,1.4C208,142.7,200.9,142.7,193.8,142.7C193.8,142.7,193.8,142.7,193.8,142.7z"/>
	<path class="st0" d="M90.2,95.8c8.9,0.2,16.5,3.5,21.7,11.3c2.9,4.3,3.7,9.2,3.3,14.4c-0.4,4.7-1.6,9.1-4.4,12.8
		c-2.4,3.2-5.5,5.5-9.3,6.9c-4,1.5-8.1,2.2-12.4,2.1c-5.6-0.1-11-1.3-15.6-4.7c-3.8-2.8-6.5-6.5-7.8-11.2c-0.9-3.6-1.4-7.2-0.9-10.9
		c0.7-5,2.8-9.1,6.2-12.7C76.2,98.4,82.6,96,90.2,95.8z M77.2,119.3c-0.1,3.8,0.5,7.4,1.9,11c2.5,6.2,8.9,9.1,15.1,6.6
		c4.5-1.8,6.6-5.4,7.7-9.8c1.2-5,1.3-10.1,0-15.2c-1.3-4.9-3.8-8.7-9.3-9.8c-5.6-1.1-11.3,1-13.8,6.8
		C77.5,112.2,77.1,115.7,77.2,119.3z"/>
	<path class="st0" d="M143.6,142.6c-6.5,0-13,0-19.5,0c-2.1,0-2.1-0.1-2.1-2.2c0-2.9,0-2.7,2.9-2.7c0.8,0,1.6,0,2.4-0.2
		c1.2-0.3,2-1.1,2-2.4c0-10,0-20,0-30c0-1.6-0.6-2.2-2.1-2.5c-1.2-0.2-2.4-0.2-3.7-0.3c-1,0-1.5-0.5-1.4-1.5c0,0,0-0.1,0-0.1
		c0.1-3.4,0.1-3.4,3.6-3.4c6.7,0,13.5,0,20.2,0c1.2,0,1.7,0.4,1.7,1.7c0,3.3,0,3.3-3.3,3.4c-0.5,0-1,0-1.6,0.1
		c-1.8,0.2-2.6,0.9-2.6,2.7c-0.1,4.6,0,9.2,0,13.8c0,5.5-0.1,11.1-0.1,16.6c0,1.9,0.2,2.1,2.1,2.1c2.9,0,5.9,0.1,8.8,0
		c1.6-0.1,3.2-0.4,4.7-1c2.8-1.2,3.7-3.8,4.2-6.5c0.3-2,0.4-4.1,0.5-6.1c0-1.1,0.5-1.5,1.6-1.5c3.5,0,3.5,0,3.5,3.6
		c0,4.8,0,9.7,0,14.5c0,2-0.1,2-2.1,2C156.6,142.6,150.1,142.6,143.6,142.6C143.6,142.6,143.6,142.6,143.6,142.6z"/>
</g>
</svg>
